<svg width="24" height="24" viewBox="0 0 24 24" fill="none" xmlns="http://www.w3.org/2000/svg">
<path d="M9.52491 12L16.8749 4.65C17.1249 4.4 17.2459 4.104 17.2379 3.762C17.2299 3.42 17.1006 3.12434 16.8499 2.875C16.5992 2.62567 16.3032 2.50067 15.9619 2.5C15.6206 2.49934 15.3249 2.62434 15.0749 2.875L7.39991 10.575C7.19991 10.775 7.04991 11 6.94991 11.25C6.84991 11.5 6.79991 11.75 6.79991 12C6.79991 12.25 6.84991 12.5 6.94991 12.75C7.04991 13 7.19991 13.225 7.39991 13.425L15.0999 21.125C15.3499 21.375 15.6416 21.496 15.9749 21.488C16.3082 21.48 16.5999 21.3507 16.8499 21.1C17.0999 20.8493 17.2249 20.5533 17.2249 20.212C17.2249 19.8707 17.0999 19.575 16.8499 19.325L9.52491 12Z" fill="black"/>
</svg>
