<svg width="24" height="24" viewBox="0 0 24 24" fill="none" xmlns="http://www.w3.org/2000/svg">
<path d="M12 13.4L16.9 18.3C17.0833 18.4834 17.3166 18.575 17.6 18.575C17.8833 18.575 18.1166 18.4834 18.3 18.3C18.4833 18.1167 18.575 17.8834 18.575 17.6C18.575 17.3167 18.4833 17.0834 18.3 16.9L13.4 12L18.3 7.10005C18.4833 6.91672 18.575 6.68338 18.575 6.40005C18.575 6.11672 18.4833 5.88338 18.3 5.70005C18.1166 5.51672 17.8833 5.42505 17.6 5.42505C17.3166 5.42505 17.0833 5.51672 16.9 5.70005L12 10.6L7.09995 5.70005C6.91662 5.51672 6.68328 5.42505 6.39995 5.42505C6.11662 5.42505 5.88329 5.51672 5.69995 5.70005C5.51662 5.88338 5.42495 6.11672 5.42495 6.40005C5.42495 6.68338 5.51662 6.91672 5.69995 7.10005L10.6 12L5.69995 16.9C5.51662 17.0834 5.42495 17.3167 5.42495 17.6C5.42495 17.8834 5.51662 18.1167 5.69995 18.3C5.88329 18.4834 6.11662 18.575 6.39995 18.575C6.68328 18.575 6.91662 18.4834 7.09995 18.3L12 13.4Z" fill="#DADAE4"/>
</svg>
