<svg width="24" height="24" viewBox="0 0 24 24" fill="none" xmlns="http://www.w3.org/2000/svg">
<path d="M14 13.4L15.9 15.3C16.0833 15.4833 16.3167 15.575 16.6 15.575C16.8833 15.575 17.1167 15.4833 17.3 15.3C17.4833 15.1167 17.575 14.8833 17.575 14.6C17.575 14.3167 17.4833 14.0833 17.3 13.9L15.4 12L17.3 10.1C17.4833 9.91667 17.575 9.68333 17.575 9.4C17.575 9.11667 17.4833 8.88333 17.3 8.7C17.1167 8.51667 16.8833 8.425 16.6 8.425C16.3167 8.425 16.0833 8.51667 15.9 8.7L14 10.6L12.1 8.7C11.9167 8.51667 11.6833 8.425 11.4 8.425C11.1167 8.425 10.8833 8.51667 10.7 8.7C10.5167 8.88333 10.425 9.11667 10.425 9.4C10.425 9.68333 10.5167 9.91667 10.7 10.1L12.6 12L10.7 13.9C10.5167 14.0833 10.425 14.3167 10.425 14.6C10.425 14.8833 10.5167 15.1167 10.7 15.3C10.8833 15.4833 11.1167 15.575 11.4 15.575C11.6833 15.575 11.9167 15.4833 12.1 15.3L14 13.4ZM9 20C8.68333 20 8.38333 19.929 8.1 19.787C7.81667 19.645 7.58333 19.4493 7.4 19.2L2.9 13.2C2.63333 12.85 2.5 12.45 2.5 12C2.5 11.55 2.63333 11.15 2.9 10.8L7.4 4.8C7.58333 4.55 7.81667 4.35433 8.1 4.213C8.38333 4.07167 8.68333 4.00067 9 4H20C20.55 4 21.021 4.196 21.413 4.588C21.805 4.98 22.0007 5.45067 22 6V18C22 18.55 21.8043 19.021 21.413 19.413C21.0217 19.805 20.5507 20.0007 20 20H9ZM9 18H20V6H9L4.5 12L9 18Z" fill="#F9F9FD"/>
</svg>
