<svg width="156" height="156" viewBox="0 0 156 156" fill="none" xmlns="http://www.w3.org/2000/svg">
<circle cx="78" cy="78" r="77.5" stroke="#249D57"/>
<path d="M68 60H64C62.9391 60 61.9217 60.4214 61.1716 61.1716C60.4214 61.9217 60 62.9391 60 64V68M88 60H92C93.0609 60 94.0783 60.4214 94.8284 61.1716C95.5786 61.9217 96 62.9391 96 64V68M86 70V74M70 70V74M72 86C72 86 74 88 78 88C82 88 84 86 84 86M78 70V80H76M68 96H64C62.9391 96 61.9217 95.5786 61.1716 94.8284C60.4214 94.0783 60 93.0609 60 92V88M88 96H92C93.0609 96 94.0783 95.5786 94.8284 94.8284C95.5786 94.0783 96 93.0609 96 92V88" stroke="#249D57" stroke-width="2" stroke-linecap="round" stroke-linejoin="round"/>
</svg>
