<svg width="154" height="154" viewBox="0 0 154 154" fill="none" xmlns="http://www.w3.org/2000/svg">
<circle cx="77" cy="77" r="76.5" stroke="#249D57"/>
<path d="M72 81L86.75 66.25C87.2083 65.7917 87.7917 65.5625 88.5 65.5625C89.2083 65.5625 89.7917 65.7917 90.25 66.25C90.7083 66.7083 90.9375 67.2917 90.9375 68C90.9375 68.7083 90.7083 69.2917 90.25 69.75L73.75 86.25C73.25 86.75 72.6667 87 72 87C71.3333 87 70.75 86.75 70.25 86.25L63.75 79.75C63.2917 79.2917 63.0625 78.7083 63.0625 78C63.0625 77.2917 63.2917 76.7083 63.75 76.25C64.2083 75.7917 64.7917 75.5625 65.5 75.5625C66.2083 75.5625 66.7917 75.7917 67.25 76.25L72 81Z" fill="#249D57"/>
</svg>
