<svg width="130" height="148" viewBox="0 0 130 148" fill="none" xmlns="http://www.w3.org/2000/svg">
<path d="M15.5739 131.626L13.5579 136.022H10.0019L7.98587 131.626H7.92987L7.95787 136.022V140.138H1.51787V121.434H8.54587L11.7659 128.126H11.8219L15.0419 121.434H22.0419V140.138H15.6019V136.022L15.6299 131.626H15.5739ZM23.2846 121.434H30.0606V140.138H23.2846V121.434ZM41.6014 128.182C41.6014 127.286 41.0694 126.81 40.0334 126.81H37.9334V129.61H40.0334C40.9854 129.61 41.6014 129.218 41.6014 128.182ZM49.6654 140.138H42.4414C41.8814 139.466 41.6574 138.934 41.4614 137.786L41.1814 136.106C41.0134 135.07 40.5374 134.734 39.6974 134.734H37.9334V140.138H31.2974V121.434H40.9294C45.2134 121.434 48.5174 122.974 48.5174 127.286C48.5174 129.918 46.7254 131.514 44.7934 131.934V131.99C46.4174 132.298 47.3414 133.278 47.7334 134.93L48.3774 137.674C48.6294 138.738 48.9654 139.41 49.6654 140.138ZM49.6188 121.434H56.3948V140.138H49.6188V121.434ZM71.6876 131.626L69.6716 136.022H66.1156L64.0996 131.626H64.0436L64.0716 136.022V140.138H57.6316V121.434H64.6596L67.8796 128.126H67.9356L71.1556 121.434H78.1556V140.138H71.7156V136.022L71.7436 131.626H71.6876ZM88.4983 135.378H86.1743V140.138H79.3983V121.434H88.4983C93.1183 121.434 96.1703 123.786 96.1703 128.462C96.1703 132.998 92.6423 135.378 88.4983 135.378ZM89.2823 128.49C89.2823 127.258 88.5263 126.726 87.6583 126.726H86.1743V130.226H87.6583C88.4983 130.226 89.2823 129.806 89.2823 128.49ZM103.594 128.322L102.222 132.634H105.05L103.65 128.322H103.594ZM107.458 140.138L106.59 137.422H100.682L99.8138 140.138H93.1778L99.8978 121.434H107.626L114.346 140.138H107.458ZM120.046 126.894H120.102L122.734 121.434H129.762L123.294 133.558V140.138H116.546V133.558L110.05 121.434H117.386L120.046 126.894Z" fill="#249D57"/>
<path d="M16 37.763V15.3904C16 7.33139 22.0316 0.113856 30.2841 0.113831H51.8006L52.0163 0.119426C54.2304 0.231678 55.9911 2.06228 55.9911 4.3043C55.9911 6.54633 54.2304 8.37693 52.0163 8.48918L51.8006 8.49478H30.2841C27.3833 8.4948 24.381 11.2024 24.3809 15.3904V37.763C24.3809 40.0773 22.5048 41.9535 20.1905 41.9535C17.8761 41.9535 16 40.0773 16 37.763Z" fill="#249D57"/>
<path d="M16 86.8792V65.4156C16 63.1012 17.8761 61.2251 20.1905 61.2251C22.5048 61.2251 24.3809 63.1012 24.3809 65.4156V86.8792C24.381 89.8726 27.054 92.7573 30.9419 92.7574H52.644L52.8597 92.763C55.0738 92.8753 56.8344 94.7059 56.8345 96.9479C56.8345 99.1899 55.0738 101.021 52.8597 101.133L52.644 101.138H30.9419C22.9524 101.138 16 95.0115 16 86.8792Z" fill="#249D57"/>
<path d="M105.619 86.1129V64.4642C105.619 62.1498 107.495 60.2737 109.809 60.2737C112.124 60.2737 114 62.1498 114 64.4642V86.1129C114 94.1078 107.843 101.028 99.7157 101.028H78.1993C75.8849 101.028 74.0088 99.1522 74.0088 96.8378C74.0088 94.5235 75.8849 92.6474 78.1993 92.6474H99.7157C102.742 92.6473 105.619 89.9661 105.619 86.1129Z" fill="#249D57"/>
<path d="M105.619 36.7839V14.598C105.619 11.2899 102.812 8.38095 99.0576 8.38095H77.356C75.0416 8.38095 73.1655 6.50483 73.1655 4.19047C73.1655 1.87612 75.0416 0 77.356 0H99.0576C107.181 0 114 6.40582 114 14.598V36.7839C114 39.0982 112.124 40.9743 109.81 40.9744C107.495 40.9744 105.619 39.0982 105.619 36.7839Z" fill="#249D57"/>
<path d="M52.1405 45.7752C51.2512 45.7752 49.9529 45.7752 48.2456 45.7752C46.5739 45.7752 45.4356 45.6869 44.831 45.5104C44.2263 45.3339 43.924 45.0565 43.924 44.6782V20.8097C43.924 20.2297 45.0088 19.7758 47.1785 19.448C49.3838 19.0949 51.7314 18.9184 54.2213 18.9184C56.7111 18.9184 58.4896 19.1454 59.5566 19.5993C60.6237 20.0532 61.2462 20.5323 61.424 21.0367L65.0521 31.0229H65.5323L68.9469 21.4906C69.1959 20.8097 70.3519 20.2171 72.4149 19.7128C74.5135 19.1832 76.8077 18.9184 79.2976 18.9184C81.7874 18.9184 83.6193 19.0571 84.793 19.3345C86.0024 19.6119 86.6071 19.9649 86.6071 20.3936V44.6782C86.6071 45.0061 85.5933 45.2708 83.5659 45.4726C81.5384 45.6743 79.0664 45.7752 76.1497 45.7752C73.233 45.7752 71.7747 45.4095 71.7747 44.6782C71.7747 42.686 72.077 39.143 72.6817 34.049H72.2015L69.4271 43.9217C69.3204 44.3 68.8758 44.5774 68.0933 44.7539C67.3463 44.9304 66.2081 45.0187 64.6786 45.0187C63.1491 45.0187 62.2066 44.943 61.8509 44.7917C61.5307 44.6404 61.3173 44.3504 61.2106 43.9217L58.3295 34.049H57.8493C58.4896 39.2438 58.8097 42.7869 58.8097 44.6782C58.8097 45.3339 56.5866 45.6995 52.1405 45.7752Z" fill="#249D57"/>
<path d="M45.1635 64.3072C44.6497 64.3072 44.2348 63.0921 43.9186 60.6618C43.6024 58.2315 43.4443 55.8012 43.4443 53.3709C43.4443 50.9406 43.5826 49.3868 43.8593 48.7095C44.1359 48.0322 44.5707 47.6935 45.1635 47.6935L83.2819 47.6935C85.1789 47.6935 86.1274 53.4306 86.1274 64.9048C86.1274 71.8372 85.6532 76.4189 84.7047 78.65C83.5981 81.3592 82.0963 83.1918 80.1992 84.148C77.7489 85.4229 74.607 86.0604 70.7734 86.0604C65.517 86.0604 61.7032 85.144 59.3319 83.3114C57.593 81.9966 56.4666 80.6819 55.9528 79.3671C55.4391 78.0524 55.0636 76.9567 54.8265 76.0802C54.6289 75.2436 54.4708 74.1878 54.3522 72.9129C54.1941 71.1599 54.1151 68.7694 54.1151 65.7415L54.1744 64.3072L45.1635 64.3072ZM64.0152 64.367L64.0152 65.8013C64.0152 66.5582 64.114 67.1559 64.3116 67.5941C64.5488 68.0324 65.1416 68.4108 66.0901 68.7296C67.0781 69.0881 68.4416 69.2674 70.1806 69.2674C71.959 69.2674 73.3027 69.0682 74.2117 68.6698C75.1603 68.3112 75.7136 67.9328 75.8716 67.5343C76.0692 67.1758 76.168 66.7375 76.168 66.2196L76.168 64.367L64.0152 64.367Z" fill="#249D57"/>
</svg>
