<svg width="24" height="25" viewBox="0 0 24 25" fill="none" xmlns="http://www.w3.org/2000/svg">
<path d="M21 13.5H19C18.7167 13.5 18.4793 13.404 18.288 13.212C18.0967 13.02 18.0007 12.7827 18 12.5C17.9993 12.2173 18.0953 11.98 18.288 11.788C18.4807 11.596 18.718 11.5 19 11.5H21C21.2833 11.5 21.521 11.596 21.713 11.788C21.905 11.98 22.0007 12.2173 22 12.5C21.9993 12.7827 21.9033 13.0203 21.712 13.213C21.5207 13.4057 21.2833 13.5013 21 13.5ZM16.6 17.3C16.7667 17.0667 16.9833 16.9333 17.25 16.9C17.5167 16.8667 17.7667 16.9333 18 17.1L19.6 18.3C19.8333 18.4667 19.9667 18.6833 20 18.95C20.0333 19.2167 19.9667 19.4667 19.8 19.7C19.6333 19.9333 19.4167 20.0667 19.15 20.1C18.8833 20.1333 18.6333 20.0667 18.4 19.9L16.8 18.7C16.5667 18.5333 16.4333 18.3167 16.4 18.05C16.3667 17.7833 16.4333 17.5333 16.6 17.3ZM19.6 6.7L18 7.9C17.7667 8.06666 17.5167 8.13333 17.25 8.1C16.9833 8.06666 16.7667 7.93333 16.6 7.7C16.4333 7.46666 16.3667 7.21666 16.4 6.95C16.4333 6.68333 16.5667 6.46666 16.8 6.3L18.4 5.1C18.6333 4.93333 18.8833 4.86666 19.15 4.9C19.4167 4.93333 19.6333 5.06666 19.8 5.3C19.9667 5.53333 20.0333 5.78333 20 6.05C19.9667 6.31666 19.8333 6.53333 19.6 6.7ZM5 15.5H4C3.45 15.5 2.97933 15.3043 2.588 14.913C2.19667 14.5217 2.00067 14.0507 2 13.5V11.5C2 10.95 2.196 10.4793 2.588 10.088C2.98 9.69666 3.45067 9.50066 4 9.5H8L11.475 7.4C11.8083 7.2 12.146 7.2 12.488 7.4C12.83 7.6 13.0007 7.89166 13 8.275V16.725C13 17.1083 12.829 17.4 12.487 17.6C12.145 17.8 11.8077 17.8 11.475 17.6L8 15.5H7V18.5C7 18.7833 6.904 19.021 6.712 19.213C6.52 19.405 6.28267 19.5007 6 19.5C5.71733 19.4993 5.48 19.4033 5.288 19.212C5.096 19.0207 5 18.7833 5 18.5V15.5ZM11 14.95V10.05L8.55 11.5H4V13.5H8.55L11 14.95ZM14 15.85V9.15C14.45 9.55 14.8127 10.0377 15.088 10.613C15.3633 11.1883 15.5007 11.8173 15.5 12.5C15.4993 13.1827 15.3617 13.812 15.087 14.388C14.8123 14.964 14.45 15.4513 14 15.85Z" fill="#FF2007"/>
</svg>
