<svg width="24" height="24" viewBox="0 0 24 24" fill="none" xmlns="http://www.w3.org/2000/svg">
<path d="M6 20C6 20.2833 5.904 20.521 5.712 20.713C5.52 20.905 5.28267 21.0007 5 21H2C1.71667 21 1.47933 20.904 1.288 20.712C1.09667 20.52 1.00067 20.2827 1 20V17C1 16.7167 1.096 16.4793 1.288 16.288C1.48 16.0967 1.71733 16.0007 2 16C2.28267 15.9993 2.52033 16.0953 2.713 16.288C2.90567 16.4807 3.00133 16.718 3 17V19H5C5.28333 19 5.521 19.096 5.713 19.288C5.905 19.48 6.00067 19.7173 6 20ZM22 16C22.2833 16 22.521 16.096 22.713 16.288C22.905 16.48 23.0007 16.7173 23 17V20C23 20.2833 22.904 20.521 22.712 20.713C22.52 20.905 22.2827 21.0007 22 21H19C18.7167 21 18.4793 20.904 18.288 20.712C18.0967 20.52 18.0007 20.2827 18 20C17.9993 19.7173 18.0953 19.48 18.288 19.288C18.4807 19.096 18.718 19 19 19H21V17C21 16.7167 21.096 16.4793 21.288 16.288C21.48 16.0967 21.7173 16.0007 22 16ZM4.5 18C4.36667 18 4.25 17.95 4.15 17.85C4.05 17.75 4 17.6333 4 17.5V6.5C4 6.36667 4.05 6.25 4.15 6.15C4.25 6.05 4.36667 6 4.5 6H5.5C5.63333 6 5.75 6.05 5.85 6.15C5.95 6.25 6 6.36667 6 6.5V17.5C6 17.6333 5.95 17.75 5.85 17.85C5.75 17.95 5.63333 18 5.5 18H4.5ZM7.5 18C7.36667 18 7.25 17.95 7.15 17.85C7.05 17.75 7 17.6333 7 17.5V6.5C7 6.36667 7.05 6.25 7.15 6.15C7.25 6.05 7.36667 6 7.5 6C7.63333 6 7.75 6.05 7.85 6.15C7.95 6.25 8 6.36667 8 6.5V17.5C8 17.6333 7.95 17.75 7.85 17.85C7.75 17.95 7.63333 18 7.5 18ZM10.5 18C10.3667 18 10.25 17.95 10.15 17.85C10.05 17.75 10 17.6333 10 17.5V6.5C10 6.36667 10.05 6.25 10.15 6.15C10.25 6.05 10.3667 6 10.5 6H11.5C11.6333 6 11.75 6.05 11.85 6.15C11.95 6.25 12 6.36667 12 6.5V17.5C12 17.6333 11.95 17.75 11.85 17.85C11.75 17.95 11.6333 18 11.5 18H10.5ZM13.5 18C13.3667 18 13.25 17.95 13.15 17.85C13.05 17.75 13 17.6333 13 17.5V6.5C13 6.36667 13.05 6.25 13.15 6.15C13.25 6.05 13.3667 6 13.5 6H15.5C15.6333 6 15.75 6.05 15.85 6.15C15.95 6.25 16 6.36667 16 6.5V17.5C16 17.6333 15.95 17.75 15.85 17.85C15.75 17.95 15.6333 18 15.5 18H13.5ZM17.5 18C17.3667 18 17.25 17.95 17.15 17.85C17.05 17.75 17 17.6333 17 17.5V6.5C17 6.36667 17.05 6.25 17.15 6.15C17.25 6.05 17.3667 6 17.5 6C17.6333 6 17.75 6.05 17.85 6.15C17.95 6.25 18 6.36667 18 6.5V17.5C18 17.6333 17.95 17.75 17.85 17.85C17.75 17.95 17.6333 18 17.5 18ZM19.5 18C19.3667 18 19.25 17.95 19.15 17.85C19.05 17.75 19 17.6333 19 17.5V6.5C19 6.36667 19.05 6.25 19.15 6.15C19.25 6.05 19.3667 6 19.5 6C19.6333 6 19.75 6.05 19.85 6.15C19.95 6.25 20 6.36667 20 6.5V17.5C20 17.6333 19.95 17.75 19.85 17.85C19.75 17.95 19.6333 18 19.5 18ZM6 4C6 4.28333 5.904 4.521 5.712 4.713C5.52 4.905 5.28267 5.00067 5 5H3V7C3 7.28333 2.904 7.521 2.712 7.713C2.52 7.905 2.28267 8.00067 2 8C1.71733 7.99933 1.48 7.90333 1.288 7.712C1.096 7.52067 1 7.28333 1 7V4C1 3.71667 1.096 3.47933 1.288 3.288C1.48 3.09667 1.71733 3.00067 2 3H5C5.28333 3 5.521 3.096 5.713 3.288C5.905 3.48 6.00067 3.71733 6 4ZM18 4C18 3.71667 18.096 3.47933 18.288 3.288C18.48 3.09667 18.7173 3.00067 19 3H22C22.2833 3 22.521 3.096 22.713 3.288C22.905 3.48 23.0007 3.71733 23 4V7C23 7.28333 22.904 7.521 22.712 7.713C22.52 7.905 22.2827 8.00067 22 8C21.7173 7.99933 21.48 7.90333 21.288 7.712C21.096 7.52067 21 7.28333 21 7V5H19C18.7167 5 18.4793 4.904 18.288 4.712C18.0967 4.52 18.0007 4.28267 18 4Z" fill="black"/>
</svg>
