<svg width="24" height="24" viewBox="0 0 24 24" fill="none" xmlns="http://www.w3.org/2000/svg">
<path d="M5.02502 21C4.47502 21 4.00435 20.8043 3.61302 20.413C3.22168 20.0217 3.02568 19.5507 3.02502 19V11.05C2.64168 10.7 2.34602 10.25 2.13802 9.7C1.93002 9.15 1.92568 8.55 2.12502 7.9L3.17502 4.5C3.30835 4.06667 3.54602 3.70833 3.88802 3.425C4.23002 3.14167 4.62568 3 5.07502 3H18.975C19.425 3 19.8167 3.13767 20.15 3.413C20.4834 3.68833 20.725 4.05067 20.875 4.5L21.925 7.9C22.125 8.55 22.121 9.14167 21.913 9.675C21.705 10.2083 21.409 10.6667 21.025 11.05V19C21.025 19.55 20.8293 20.021 20.438 20.413C20.0467 20.805 19.5757 21.0007 19.025 21H5.02502ZM14.225 10C14.675 10 15.0167 9.846 15.25 9.538C15.4834 9.23 15.575 8.884 15.525 8.5L14.975 5H13.025V8.7C13.025 9.05 13.1417 9.35433 13.375 9.613C13.6084 9.87167 13.8917 10.0007 14.225 10ZM9.72502 10C10.1084 10 10.421 9.87067 10.663 9.612C10.905 9.35333 11.0257 9.04933 11.025 8.7V5H9.07502L8.52502 8.5C8.45835 8.9 8.54568 9.25 8.78702 9.55C9.02835 9.85 9.34102 10 9.72502 10ZM5.27502 10C5.57502 10 5.83735 9.89167 6.06202 9.675C6.28668 9.45833 6.42435 9.18333 6.47502 8.85L7.02502 5H5.07502L4.07502 8.35C3.97502 8.68333 4.02902 9.04167 4.23702 9.425C4.44502 9.80833 4.79102 10 5.27502 10ZM18.775 10C19.2584 10 19.6084 9.80833 19.825 9.425C20.0417 9.04167 20.0917 8.68333 19.975 8.35L18.925 5H17.025L17.575 8.85C17.625 9.18333 17.7627 9.45833 17.988 9.675C18.2134 9.89167 18.4757 10 18.775 10ZM5.02502 19H19.025V11.95C18.9417 11.9833 18.8877 12 18.863 12H18.775C18.325 12 17.9294 11.925 17.588 11.775C17.2467 11.625 16.909 11.3833 16.575 11.05C16.275 11.35 15.9334 11.5833 15.55 11.75C15.1667 11.9167 14.7584 12 14.325 12C13.875 12 13.454 11.9167 13.062 11.75C12.67 11.5833 12.3244 11.35 12.025 11.05C11.7417 11.35 11.4127 11.5833 11.038 11.75C10.6634 11.9167 10.259 12 9.82502 12C9.34168 12 8.90435 11.9167 8.51302 11.75C8.12168 11.5833 7.77568 11.35 7.47502 11.05C7.12502 11.4 6.77935 11.646 6.43802 11.788C6.09668 11.93 5.70902 12.0007 5.27502 12H5.16302C5.12102 12 5.07502 11.9833 5.02502 11.95V19Z" fill="black"/>
</svg>
